inDegrees=no
num_controls=7
num_derivatives=13
num_iterations=83
num_multipliers=7
num_parameters=0
num_slacks=7
num_states=26
objective=0.334220
objective_accelerations=0.036496
objective_balance=0.001222
objective_effort=0.027336
objective_height=0.267510
objective_ligament=0.001656
solver_duration=873.438843
status=Solve_Succeeded
success=true
DataType=double
version=3
OpenSimVersion=4.5
endheader
time	/jointset/ground_pelvis/pelvis_tilt/value	/jointset/ground_pelvis/pelvis_tx/value	/jointset/ground_pelvis/pelvis_ty/value	/jointset/hip_r/hip_flexion_r/value	/jointset/hip_r/hip_adduction_r/value	/jointset/hip_r/hip_rotation_r/value	/jointset/back/lumbar_extension/value	/jointset/patellofemoral_r/patellar_flexion_r/value	/jointset/knee_r/knee_flexion_r/value	/jointset/knee_r/knee_adduction_r/value	/jointset/knee_r/knee_rotation_r/value	/jointset/ankle_r/ankle_angle_r/value	/jointset/subtalar_r/subtalar_angle_r/value	/jointset/ground_pelvis/pelvis_tilt/speed	/jointset/ground_pelvis/pelvis_tx/speed	/jointset/ground_pelvis/pelvis_ty/speed	/jointset/hip_r/hip_flexion_r/speed	/jointset/hip_r/hip_adduction_r/speed	/jointset/hip_r/hip_rotation_r/speed	/jointset/back/lumbar_extension/speed	/jointset/patellofemoral_r/patellar_flexion_r/speed	/jointset/knee_r/knee_flexion_r/speed	/jointset/knee_r/knee_adduction_r/speed	/jointset/knee_r/knee_rotation_r/speed	/jointset/ankle_r/ankle_angle_r/speed	/jointset/subtalar_r/subtalar_angle_r/speed	/forceset/tau_hip_flexion_r	/forceset/tau_hip_adduction_r	/forceset/tau_hip_rotation_r	/forceset/tau_knee_flexion_r	/forceset/tau_ankle_angle_r	/forceset/tau_subtalar_angle_r	/forceset/tau_lumbar_extension	lambda_cid13_p0	lambda_cid14_p0	lambda_cid14_p1	lambda_cid14_p2	lambda_cid14_p3	lambda_cid14_p4	lambda_cid14_p5	/jointset/ground_pelvis/pelvis_tilt/accel	/jointset/ground_pelvis/pelvis_tx/accel	/jointset/ground_pelvis/pelvis_ty/accel	/jointset/hip_r/hip_flexion_r/accel	/jointset/hip_r/hip_adduction_r/accel	/jointset/hip_r/hip_rotation_r/accel	/jointset/back/lumbar_extension/accel	/jointset/patellofemoral_r/patellar_flexion_r/accel	/jointset/knee_r/knee_flexion_r/accel	/jointset/knee_r/knee_adduction_r/accel	/jointset/knee_r/knee_rotation_r/accel	/jointset/ankle_r/ankle_angle_r/accel	/jointset/subtalar_r/subtalar_angle_r/accel	gamma_cid13_p0	gamma_cid14_p0	gamma_cid14_p1	gamma_cid14_p2	gamma_cid14_p3	gamma_cid14_p4	gamma_cid14_p5
0.5	-0.1696761169867099	0.03201385812837058	0.8057258392177218	0.9127349174879106	-0.2401441764894336	-0.08212446282840916	-0.6473102874836132	0.955017897330151	0.9550178973301686	0.01609423287265579	0.1744989097308763	0.2937472889892893	0.1109875736780725	-0.4320036572866103	-0.2048583693623637	-0.4999402199850623	1.932675264696508	-0.01459296652461766	0.3424349870703846	-0.7355096484469458	1.930116891312614	1.930116891312601	-0.2886384195532908	-0.0006851306328165281	0.5246503375306225	0.1634991564176835	-0.2127358386003498	0.01918829985812035	0.0268855245024144	-0.2693689496027844	-0.01910833778118189	-0.01200646006668687	0.248061541622997	-8.092221431189909	-49.10990092477531	-12.71841356818778	1.199094546976111	-2.918631095100613	-640.3098622758046	50.58475556159503	0.3237339871078582	0.5791808518286898	-0.4219155598756509	-1.269684459682973	-0.1099979263649044	-0.09599907549411955	1.801789015131457	-1.352822629907689	-1.352822629907667	0.8529230284809506	-0.08398904158422336	-0.5679008367227049	-0.2269689300468384	-3.508531358158096e-08	1.342968348679439e-07	2.397250285506505e-06	1.162447915042051e-06	-3.430622908920699e-07	-3.291313742895997e-08	1.504148586882986e-06
0.51	-0.1739790316349022	0.02999440389770248	0.8007064926906273	0.9319952721680614	-0.2402953084974209	-0.07871031517792368	-0.654574765284627	0.9742483538168724	0.9742483538168676	0.01324641197578654	0.1744911696850375	0.2989645985703168	0.1126113999205133	-0.4285100155506833	-0.199016541790061	-0.5038181357319679	1.919145104307579	-0.01557927116975056	0.3401908562081656	-0.7173021986640942	1.915706796092138	1.915706796092132	-0.281147506968683	-0.0008137259658930904	0.5187504250336276	0.1613230414105528	-0.2196528423278503	0.02064964890201327	0.02695701015824813	-0.2736203823852439	-0.02065495452505579	-0.01161383681029749	0.2543000014269561	-7.152519539053756	-49.91261423781526	-12.83622261341399	1.386672364368701	-2.819998023639286	-645.2676089400366	50.63704237217254	0.3725824798409814	0.5890039790431327	-0.3540940066731004	-1.432248141952949	-0.08450344407907848	-0.3192325799744665	1.842779923572636	-1.525236619658288	-1.525236619657245	0.6642525166918557	0.03037220888147949	-0.6102876840541028	-0.2038680753482887	-3.393313249756411e-08	1.340648747505716e-07	2.39791279004986e-06	1.137403108155909e-06	-3.438800755222013e-07	-3.736053607054072e-08	1.55202276876316e-06
0.52	-0.1782449292231352	0.02803383199657971	0.7956516941211487	0.9511128119816321	-0.2404546148939581	-0.07532473133374026	-0.6616546571950697	0.993326682621074	0.9933266826210587	0.01046691563339025	0.1744836770834809	0.3041210587808016	0.1142152779550222	-0.4246002452945198	-0.1930819034532966	-0.5070306284618682	1.90411229138045	-0.01622784423454291	0.3367222258104012	-0.6985924703328177	1.899691354810034	1.899691354810036	-0.2749735086544229	-0.0006356417769368051	0.5124804634219833	0.1595095148313364	-0.2265698460553418	0.02211099794589427	0.02702849581417366	-0.2778718151676957	-0.02220157126893299	-0.01122121355392888	0.2605384612309243	-6.273343246000716	-50.71370143317147	-12.94937943731519	1.568519649962414	-2.739912020584246	-650.2068119496005	50.69515132555214	0.4069596911551593	0.5977430047210451	-0.2888309564746297	-1.570214967323083	-0.04245161029678877	-0.3408989826032378	1.902244724816414	-1.673891842233109	-1.673891842233109	0.5895401744113612	-0.02265313717764833	-0.6419106596525465	-0.1544512444639755	-2.329985247580855e-08	1.336712117326161e-07	2.284441663006218e-06	1.110186520122028e-06	-3.31736329924932e-07	-4.334358988299416e-08	1.545712397953882e-06
0.53	-0.1824696917328724	0.02613301365883604	0.7905681302381322	0.9700725368960399	-0.240619356066384	-0.07197768908724016	-0.6685450684957566	1.012237028285829	1.01223702828582	0.007745296476320113	0.1744788010672739	0.3092128207289723	0.1158017651621929	-0.4202834831525301	-0.1870711082275879	-0.5095670105556445	1.887578426581123	-0.01672643171782716	0.3326890231838172	-0.6794226378123103	1.882127767249931	1.882127767249929	-0.2693030580675105	-0.0003273921538337792	0.5057961457475335	0.1577417602819828	-0.2333606916307822	0.02341197903598183	0.02703281056546036	-0.2822944136864968	-0.02374000710915852	-0.0108577781666614	0.2666410377078449	-5.455451267880243	-51.52456743040153	-13.07567782597466	1.751037157991239	-2.59162297215501	-655.2581778926383	50.74134732730932	0.4543656196958517	0.6042810901532096	-0.2187804952156757	-1.733093411064953	-0.05418726889925885	-0.4341575399102152	1.934425314465356	-1.835090303647447	-1.835090303647962	0.5631811056790081	0.05967437711852888	-0.6931288635073976	-0.1943829192985986	-1.830285721715522e-08	1.250945310909669e-07	2.128113501382461e-06	1.007350789610935e-06	-3.101938629744676e-07	-5.208784953583945e-08	1.502253595663788e-06
